<?xml version="1.0" encoding="UTF-8" standalone="no"?>
<!-- Created with Inkscape (http://www.inkscape.org/) -->

<svg
   xmlns:dc="http://purl.org/dc/elements/1.1/"
   xmlns:cc="http://creativecommons.org/ns#"
   xmlns:rdf="http://www.w3.org/1999/02/22-rdf-syntax-ns#"
   xmlns:svg="http://www.w3.org/2000/svg"
   xmlns="http://www.w3.org/2000/svg"
   xmlns:sodipodi="http://sodipodi.sourceforge.net/DTD/sodipodi-0.dtd"
   xmlns:inkscape="http://www.inkscape.org/namespaces/inkscape"
   width="460"
   height="200"
   viewBox="0 0 460 200"
   version="1.1"
   id="svg8"
   inkscape:version="0.92.4 (5da689c313, 2019-01-14)"
   sodipodi:docname="Early Bird.svg"
   inkscape:export-filename="K:\NeonOcean\Artwork\Patreon\Early Bird.png"
   inkscape:export-xdpi="96"
   inkscape:export-ydpi="96">
  <defs
     id="defs2" />
  <sodipodi:namedview
     id="base"
     pagecolor="#ffffff"
     bordercolor="#666666"
     borderopacity="1.0"
     inkscape:pageopacity="0.0"
     inkscape:pageshadow="2"
     inkscape:zoom="1.4"
     inkscape:cx="215.82391"
     inkscape:cy="52.487118"
     inkscape:document-units="px"
     inkscape:current-layer="layer1"
     showgrid="false"
     units="px" />
  <metadata
     id="metadata5">
    <rdf:RDF>
      <cc:Work
         rdf:about="">
        <dc:format>image/svg+xml</dc:format>
        <dc:type
           rdf:resource="http://purl.org/dc/dcmitype/StillImage" />
        <dc:title></dc:title>
      </cc:Work>
    </rdf:RDF>
  </metadata>
  <g
     inkscape:label="Layer 1"
     inkscape:groupmode="layer"
     id="layer1"
     transform="translate(0,-685.33333)">
    <g
       id="g1290"
       transform="matrix(1.3882019,0,0,1.3882019,-1477.2926,-228.03207)">
      <g
         id="g1238"
         transform="translate(0,-3.0641427e-6)">
        <path
           style="fill:#ab3fd8;fill-opacity:0.99212599;fill-rule:evenodd;stroke:none;stroke-width:0.99999994px;stroke-linecap:butt;stroke-linejoin:miter;stroke-opacity:1"
           d="m 1198.1333,707.23762 c 2.3166,-4.10484 5.3639,0.4333 8.6149,-0.22562 -1.6469,-4.5672 -6.5793,-7.62364 -3.5865,-12.32046 2.1605,-3.3904 6.8469,-0.17499 9.4642,0.30536 -1.2577,-5.58003 -6.9802,-12.12138 -5.0212,-15.79662 1.7041,-3.19681 6.5157,-3.50744 11.3003,-1.67796 -2.1602,-7.73782 -3.7549,-12.02987 -0.4119,-14.83222 4.1094,-2.69999 18.6174,26.46223 46.583,35.43786 10.2326,5.60229 4.6543,12.7465 -7.3401,18.07904 -8.2706,4.88015 -58.2287,6.3152 -59.6027,-8.96938 z"
           id="path1176-2"
           inkscape:connector-curvature="0"
           sodipodi:nodetypes="ccscsccccc" />
        <path
           style="fill:#ca5bf8;fill-opacity:0.99212599;fill-rule:evenodd;stroke:none;stroke-width:1px;stroke-linecap:butt;stroke-linejoin:miter;stroke-opacity:1"
           d="m 1275.7143,692.14287 c 26.2401,0 38.5714,25.91513 38.5714,44.28571 0,37.06489 -28.7958,53.6826 -57.0501,59.44416 -68.8173,7.43872 -85.5095,-12.31233 -127.2356,-39.44416 4.3983,-0.12228 2.4584,1.65759 17.1428,-2.85714 -7.0409,1.05473 -11.0767,-5.40336 -16.4285,-8.57143 80.7133,5.536 60.0308,-46.5786 145,-52.85714 z"
           id="path1131"
           inkscape:connector-curvature="0"
           sodipodi:nodetypes="ccccccc" />
        <path
           style="fill:none;fill-rule:evenodd;stroke:#000000;stroke-width:4;stroke-linecap:round;stroke-linejoin:miter;stroke-miterlimit:4;stroke-dasharray:none;stroke-opacity:1"
           d="m 1283.75,714.28573 c 2.6447,-2.24428 5.2171,-4.70567 10.1785,0"
           id="path1153"
           inkscape:connector-curvature="0"
           sodipodi:nodetypes="cc" />
        <path
           style="fill:#f8b85b;fill-opacity:0.99212599;fill-rule:evenodd;stroke:none;stroke-width:1px;stroke-linecap:butt;stroke-linejoin:miter;stroke-opacity:1"
           d="m 1304.3354,716.7068 c 8.5477,-7.21995 22.1424,-2.33746 22.0936,-2.29311 0.5424,2.25355 -9.4108,5.18926 -14.1949,8.28853 6.6753,1.78078 17.8044,-0.29569 17.4768,1.57135 -7.3653,4.23544 -14.4239,6.92777 -20.8518,6.4479 -5.7126,-4.16845 -5.3875,-8.68313 -4.5237,-14.01467 z"
           id="path1159"
           inkscape:connector-curvature="0"
           sodipodi:nodetypes="cccccc" />
        <path
           style="fill:#ca5bf8;fill-opacity:0.99212599;fill-rule:evenodd;stroke:none;stroke-width:1px;stroke-linecap:butt;stroke-linejoin:miter;stroke-opacity:1"
           d="m 1171.6071,733.271 c 1.2275,-4.88007 5.6453,-1.06698 8.8068,-2.6625 -2.9842,-4.23804 -8.9249,-5.99375 -7.1683,-11.67408 1.2681,-4.10034 7.0005,-2.1116 9.8309,-2.35529 -2.869,-5.39072 -10.6064,-10.51179 -9.626,-14.84863 0.8528,-3.77231 5.7195,-5.44945 11.162,-4.91538 -4.4071,-7.35787 -7.2598,-11.32734 -4.6081,-15.15583 3.4696,-3.93928 26.634,21.99515 57.9607,23.34816 12.1165,2.88188 8.3881,11.8115 -2.4577,20.68564 -7.1393,7.3579 -58.1738,22.92807 -63.9003,7.57791 z"
           id="path1176"
           inkscape:connector-curvature="0"
           sodipodi:nodetypes="ccscsccccc" />
        <path
           style="fill:#dc95fa;fill-opacity:0.99212599;fill-rule:evenodd;stroke:none;stroke-width:1px;stroke-linecap:butt;stroke-linejoin:miter;stroke-opacity:1"
           d="m 1314.2857,736.42858 c 0,18.53245 -7.1989,31.95309 -17.9297,41.46083 -10.7307,9.50773 -24.9933,15.10255 -39.1204,17.98333 -5.0016,1.34018 -43.158,0.77876 -52.2365,-0.43273 -6.0267,-0.80422 44.2339,-19.93231 48.4612,-32.72361 6.8361,-20.68544 43.8967,-30.41203 60.8254,-26.28782 z"
           id="path1131-4"
           inkscape:connector-curvature="0"
           sodipodi:nodetypes="cscssc" />
      </g>
    </g>
  </g>
</svg>
